# xmcd
#
# Track frame offsets: 
#        150
#        13926
#        24901
#        37682
#        46545
#
# Disc length: 906 seconds
#
# Revision: 0
# Processed by: cddbd v1.5.2PL0 Copyright (c) Steve Scherf et al.
# Submitted via: ExactAudioCopy v1.2
#
DISCID=27038805
DTITLE=Jade Bird - Something American
DYEAR=2018
DGENRE=Country
TTITLE0=Something American
TTITLE1=Good Woman
TTITLE2=Cathedral
TTITLE3=Grinnin' in your face
TTITLE4=What am I here for
EXTD=
EXTT0=Something American
EXTT1=
EXTT2=
EXTT3=
EXTT4=
PLAYORDER=
